<?xml version="1.0" encoding="iso-8859-1"?>
<!-- Generator: Adobe Illustrator 18.0.0, SVG Export Plug-In . SVG Version: 6.00 Build 0)  -->
<!DOCTYPE svg PUBLIC "-//W3C//DTD SVG 1.1//EN" "http://www.w3.org/Graphics/SVG/1.1/DTD/svg11.dtd">
<svg version="1.1" id="Capa_1" xmlns="http://www.w3.org/2000/svg" xmlns:xlink="http://www.w3.org/1999/xlink" x="0px" y="0px"
	 viewBox="0 0 190.828 190.828" style="enable-background:new 0 0 190.828 190.828;" xml:space="preserve">
<g>
	<path style="fill:#1D1D1B;" d="M49.986,45.428c0,25.049,20.379,45.428,45.428,45.428s45.428-20.379,45.428-45.428
		c0-4.109-0.558-8.088-1.585-11.877c-0.031-0.115-0.061-0.23-0.098-0.344C133.807,14.077,116.229,0,95.414,0
		S57.021,14.077,51.67,33.207c-0.037,0.113-0.066,0.229-0.098,0.344C50.544,37.339,49.986,41.319,49.986,45.428z M95.414,75.855
		c-16.778,0-30.428-13.649-30.428-30.428c0-0.81,0.042-1.609,0.104-2.403h60.648c0.062,0.794,0.104,1.594,0.104,2.403
		C125.842,62.206,112.192,75.855,95.414,75.855z M95.414,15c10.31,0,19.432,5.158,24.938,13.024H70.476
		C75.982,20.158,85.104,15,95.414,15z"/>
	<path style="fill:#1D1D1B;" d="M164.219,100.162l-1.143-5.756H28.242l-1.548,5.452c-1.797,6.33-2.708,12.905-2.708,19.542
		c0,39.386,32.042,71.428,71.428,71.428s71.428-32.042,71.428-71.428C166.842,112.867,165.96,106.397,164.219,100.162z
		 M95.414,175.828c-31.114,0-56.428-25.313-56.428-56.428c0-3.366,0.296-6.711,0.882-9.994H150.96
		c0.586,3.282,0.882,6.627,0.882,9.994C151.842,150.515,126.528,175.828,95.414,175.828z"/>
</g>
<g>
</g>
<g>
</g>
<g>
</g>
<g>
</g>
<g>
</g>
<g>
</g>
<g>
</g>
<g>
</g>
<g>
</g>
<g>
</g>
<g>
</g>
<g>
</g>
<g>
</g>
<g>
</g>
<g>
</g>
</svg>
